<?xml version="1.0" encoding="utf-8"?>
<!-- Generator: Adobe Illustrator 25.0.1, SVG Export Plug-In . SVG Version: 6.00 Build 0)  -->
<svg version="1.1" id="Layer_1" xmlns="http://www.w3.org/2000/svg" xmlns:xlink="http://www.w3.org/1999/xlink" x="0px" y="0px"
	 viewBox="0 0 877.6 200" style="enable-background:new 0 0 877.6 200;" xml:space="preserve">
<style type="text/css">
	.st0{enable-background:new    ;}
	.st1{fill:#FFFFFF;}
</style>
<g>
	<g class="st0">
		<path class="st1" d="M252.1,83V50h19.8l-0.9,5.4h-11.8V63h9.9v5.4h-9.9v8.9h13.2V83H252.1z"/>
		<path class="st1" d="M299.6,83l-4.1-13.4c-1.2-4-2-8-2.8-11.9c-0.9,4-1.8,8-3,11.9l-4,13.4h-7.3l10.8-33.2h7.6L307.1,83H299.6z"/>
		<path class="st1" d="M333.9,83l-4.1-13.4c-1.2-4-2-8-2.8-11.9c-0.9,4-1.8,8-3,11.9l-4,13.4h-7.3l10.8-33.2h7.6L341.4,83H333.9z"/>
		<path class="st1" d="M366.9,83V68.3h-10V83h-7V50h7v12.9h10V50h7.1V83H366.9z"/>
		<path class="st1" d="M403.1,83l-6-12.7c-2-4.1-4.1-8.8-4.7-10.9c0.2,2.7,0.3,6.6,0.4,9.4L393,83h-6.8V50h7.8l6.7,13.2
			c1.8,3.5,3.1,7,3.8,9.4c-0.3-2.6-0.5-6.8-0.6-9.1L403.8,50h6.7V83H403.1z"/>
		<path class="st1" d="M422.6,83V50h7.3V83H422.6z"/>
		<path class="st1" d="M459.9,83l-10.6-17.3V83h-7.2V50h7.2V65l9.9-15.1h8.6l-11.1,15.3L469.1,83H459.9z"/>
		<path class="st1" d="M493.7,83V68.3h-10V83h-7V50h7v12.9h10V50h7.1V83H493.7z"/>
		<path class="st1" d="M553.2,83h-26.7v-5l10.8-28.1h6.2l10.8,28.5L553.2,83z M542.2,65.4c-0.4-1-1.8-5.5-1.9-6.7
			c-0.1,1.2-1.7,5.5-2.1,6.7l-4.5,11.9h12.7L542.2,65.4z"/>
		<path class="st1" d="M580.7,83V68.3h-10V83h-7V50h7v12.9h10V50h7.1V83H580.7z"/>
		<path class="st1" d="M628.1,83l-1.3-17.7c-0.2-2.1-0.2-3.8-0.2-5.5c-0.4,1.9-0.7,3.1-1.3,5.1L619.7,83h-6l-5-17.4
			c-0.5-1.6-1.1-4-1.4-5.9c0,2-0.1,3.9-0.2,6L606,83h-7l3.3-33.1h9l4.6,16.6c0.7,2.4,0.9,3.5,1.2,5.2c0.3-1.7,0.7-3.4,1.3-5.4
			l4.7-16.4h8.9l3.1,33.1H628.1z"/>
		<path class="st1" d="M666.9,82c-2.1,1.1-4.1,1.5-7,1.5c-5.3,0-8.7-1.4-11.3-4.7c-2.7-3.2-4-7.4-4-12.3c0-7.1,2.9-12.9,7.9-15.5
			c2.1-1,4.6-1.6,7.2-1.6c9.3,0,15,6.4,15,16.8C674.6,73.8,671.9,79.4,666.9,82z M665.7,58.9c-0.6-1.7-2.4-4.2-6.1-4.2
			c-2.4,0-4.4,1.1-5.4,2.9c-1.2,2.1-1.8,5-1.8,9c0,5.7,1,9.3,3.1,10.7c1.1,0.8,2.5,1.1,4.2,1.1c4.9,0,6.9-3.5,6.9-11.9
			C666.6,63.1,666.3,60.7,665.7,58.9z"/>
		<path class="st1" d="M703,83l-10.6-17.3V83h-7.2V50h7.2V65l9.9-15.1h8.6l-11.1,15.3L712.3,83H703z"/>
		<path class="st1" d="M737.8,69.8c-1.6,0.7-3.1,1.1-7,1.1H727V83h-7V50h9.2c5.9,0,7.7,0.6,9.7,1.6c3.3,1.7,5,4.8,5,8.6
			C743.8,64.5,741.6,68,737.8,69.8z M731.4,55.3H727v10.1h3.7c2.9,0,3.7-0.3,4.7-1.7c0.6-0.9,0.9-1.9,0.9-3.4
			C736.1,57.2,734.4,55.3,731.4,55.3z"/>
		<path class="st1" d="M770,83l-2.5-7.9h-10.2l-2.5,7.9h-7.3L759,49.9h7.6l11,33.2H770z M764,63l-1.4-5.9c-0.2,0.8-1.1,4.2-1.7,6.4
			c-0.7,2.4-1.1,4-1.9,6.1h6.8C765.6,69,764.5,65.3,764,63z"/>
		<path class="st1" d="M804.5,55.5h-8.3V83h-7.1V55.5h-8.5V50h25.1L804.5,55.5z"/>
		<path class="st1" d="M813.4,83V50h7.3V83H813.4z"/>
		<path class="st1" d="M851.4,83l-2.5-7.9h-10.2l-2.5,7.9H829l11.4-33.2h7.6l11,33.2H851.4z M845.4,63l-1.4-5.9
			c-0.2,0.8-1.1,4.2-1.7,6.4c-0.7,2.4-1.1,4-1.9,6.1h6.8C847,69,845.9,65.3,845.4,63z"/>
	</g>
	<g class="st0">
		<path class="st1" d="M253.1,142.5v-32.7h4.2v32.7H253.1z M262.1,125.2l13.7,17.3h-5.3l-13.1-17.3l13.2-15.4h5.3L262.1,125.2z"/>
		<path class="st1" d="M289,143.3c-6.2,0-9-3-9-7.7V119l3.9-0.7v16.6c0,3.5,1.1,5.6,5.3,5.6c3.5,0,5.6-1.7,5.6-5.6V119l3.9-0.6V135
			C298.6,139.6,295.1,143.3,289,143.3z"/>
		<path class="st1" d="M317.8,143.1c-2.2,0-4.8-1-6.5-2.8v11.3l-3.9,0.7v-33.1c0-6.5,2.6-10,9.9-10c5.6,0,9.2,3.6,9.2,8.1
			c0,3.4-1.7,6-5.5,7c5,1.1,7.3,4.4,7.3,8.4C328.3,137.3,325,143.1,317.8,143.1z M315.5,126.3h-0.7l0.8-2.8c4.3,0,6.7-1.9,6.7-5.7
			c0-3.1-1.7-5.9-5.5-5.9c-3.5,0-5.5,2-5.5,6.7V137c1.9,2,4.1,3.1,6.2,3.1c4.5,0,6.5-3.6,6.5-6.7
			C323.9,128.5,321.2,126.3,315.5,126.3z"/>
		<path class="st1" d="M343.9,143.1c-3.9,0-9.6-1.3-9.6-7c0-3.5,2.5-5.6,5.9-6.3c-3.3-0.8-5-2.7-5-5.2c0-3.7,3.8-6.7,9.1-6.7
			c3.8,0,7,1.1,9.4,3.3l-1.7,2.1c-2.1-1.5-4.8-2.5-7.6-2.5c-3.1,0-5.1,1.6-5.1,3.6c0,3,2.9,4,5.4,4h2.9v2.7h-2.8
			c-3,0-6.3,0.9-6.3,4.3c0,3.2,3.3,4.3,6,4.3c3.5,0,6.2-0.7,8.1-2.2l1.5,2.4C351.8,142.1,348.2,143.1,343.9,143.1z M345.3,115.7
			l-1.9-0.8l3.5-10l3.5,1.4L345.3,115.7z"/>
		<path class="st1" d="M378.4,138.8c-1.8,2.8-4.5,4.3-7.7,4.3c-2.6,0-5.1-1-6.9-2.8v11.3l-3.9,0.7v-23.3c0-6.8,3.2-10.9,10.3-10.9
			c6.7,0,10.2,4.6,10.2,12.4C380.4,134.4,379.8,136.6,378.4,138.8z M369.7,121.1c-3.5,0-5.8,2.7-5.8,7.5v8.4c1.9,2,4,3.1,6.1,3.1
			c2.3,0,4.4-1.2,5.3-3c0.8-1.5,1.1-3.3,1.1-6C376.3,125,374.5,121.1,369.7,121.1z"/>
		<path class="st1" d="M396.8,142.8h-3.9l-9-23.8l4-0.8l5.8,16.3c0.6,1.7,1.1,3.6,1.2,4h0.1c0.1-0.4,0.5-2.1,1.2-4l5.7-15.8h4.2
			L396.8,142.8z"/>
		<path class="st1" d="M429.4,143.3c-1.4-0.4-2.6-1.3-3.2-2.5c-0.6-1-0.8-2.1-0.8-3.7v-10.6c0-2.5-0.2-3.1-0.9-4
			c-0.6-0.6-1.6-1-2.8-1c-2,0-5.1,1.5-6.9,3.3v17.7h-3.8v-18.3c0-3-0.8-4.7-1-5l3.8-1c0.2,0.3,0.9,2,0.9,3.7
			c2.6-2.5,5.2-3.7,7.9-3.7c2.7,0,5.1,1.4,6.1,3.5c0.4,0.9,0.6,1.8,0.6,2.8v10.3c0,3.9,0.2,4.9,2,5.8L429.4,143.3z"/>
		<path class="st1" d="M459.9,121.8h-4.6c2.1,2,3.4,4.9,3.4,9.3c0,7.9-4.5,12.1-10.7,12.1c-6.9,0-10.8-4.8-10.8-12.6
			c0-7,4-11.7,10.7-11.7h13.2L459.9,121.8z M447.8,121.8c-5.5,0-6.3,4-6.3,8.1c0,3.3,0.6,6.3,1.6,7.8c0.9,1.4,2.9,2.4,5.1,2.4
			c2.6,0,4.6-1.3,5.4-3.6c0.6-1.5,0.8-2.8,0.8-5.1C454.2,127,453.8,121.8,447.8,121.8z"/>
		<path class="st1" d="M485.5,143.3c-1.4-0.4-2.6-1.3-3.2-2.5c-0.6-1-0.8-2.1-0.8-3.7v-10.6c0-2.5-0.2-3.1-0.9-4
			c-0.6-0.6-1.6-1-2.8-1c-2,0-5.1,1.5-6.9,3.3v17.7h-3.8v-18.3c0-3-0.8-4.7-1-5l3.8-1c0.2,0.3,0.9,2,0.9,3.7
			c2.6-2.5,5.2-3.7,7.9-3.7c2.7,0,5.1,1.4,6.1,3.5c0.4,0.9,0.6,1.8,0.6,2.8v10.3c0,3.9,0.1,4.9,2,5.8L485.5,143.3z"/>
	</g>
	<path class="st1" d="M174.6,67.3c0.2,0,0.4,0,0.6-0.1c0.3-0.1,0.6-0.2,0.8-0.4c0.3-0.3,0.6-0.8,0.6-1.3c0-0.5-0.2-1-0.6-1.3
		c-0.3-0.3-0.8-0.6-1.4-0.6c-0.5,0-1,0.2-1.3,0.6c-0.3,0.3-0.6,0.8-0.6,1.3c0,0.5,0.2,1,0.6,1.3c0.2,0.2,0.5,0.3,0.8,0.4
		C174.2,67.3,174.4,67.3,174.6,67.3z M133.3,184.3c-0.5,0-0.9,0.2-1.2,0.5c-0.2,0.3-0.5,0.8-0.5,1.1c0,0.5,0.2,0.9,0.5,1.2
		c0.2,0.2,0.5,0.3,0.8,0.3c0.2,0,0.3,0.1,0.5,0.1c0.2,0,0.4,0,0.5-0.1c0.1,0,0.2-0.1,0.4-0.2h0c0.1-0.1,0.2-0.1,0.3-0.2
		c0.3-0.2,0.5-0.6,0.5-1.1c0-0.4-0.2-0.8-0.5-1.1C134.2,184.4,133.8,184.3,133.3,184.3z M186.5,149.1c-0.1,0-0.2,0-0.3,0
		c0,0-0.6,0-0.7,0.1c-0.3,0.1-0.6,0.2-0.8,0.4c-0.3,0.3-0.6,0.8-0.6,1.3c0,0.5,0.2,1,0.6,1.3c0.3,0.3,0.8,0.6,1.3,0.6
		c0.6,0,1.1-0.2,1.4-0.6c0.3-0.3,0.6-0.8,0.6-1.3c0-0.5-0.2-1-0.6-1.3C187.2,149.2,186.9,149.1,186.5,149.1z M78.1,186.4
		c0-0.5-0.2-1-0.6-1.3c-0.3-0.3-0.8-0.5-1.3-0.5c-0.5,0-1,0.2-1.3,0.5s-0.6,0.8-0.6,1.3c0,0.5,0.2,1,0.6,1.3
		c0.3,0.3,0.8,0.6,1.3,0.6c0.5,0,1-0.2,1.3-0.6C77.9,187.4,78.1,186.9,78.1,186.4z M195.9,98.3L195.9,98.3c-0.6,0-1.1,0.2-1.4,0.6
		c-0.3,0.3-0.6,0.8-0.6,1.3c0,0.5,0.2,1,0.6,1.3c0.3,0.3,0.8,0.6,1.3,0.6h0.1c0.5,0,1-0.2,1.3-0.6c0.3-0.3,0.6-0.8,0.6-1.3
		c0-0.5-0.2-1-0.6-1.3C196.9,98.5,196.4,98.3,195.9,98.3z M143.8,22.2c-1.3-0.4-2.5-0.9-3.7-1.4c-0.1-0.1-0.1-0.2-0.2-0.3
		c-0.2-1.1-0.6-2.1-1-3.2c-0.4-1.1-0.9-2.3-1.5-3.4c-0.2-0.3-0.6-0.4-1-0.2c-0.3,0.2-0.5,0.6-0.2,1c0.6,1.1,1.1,2.1,1.5,3.2
		c0.2,0.7,0.5,1.5,0.6,2.2c-1.6-0.7-3.2-1.3-4.7-2.1c-0.2-0.9-0.2-1.8-0.6-2.7c-0.2-1-0.7-2-1.3-2.9c-0.2-0.3-0.7-0.4-1.1-0.2
		c-0.3,0.2-0.3,0.8-0.2,1.1c0.6,0.8,0.9,1.5,1.1,2.5c0.2,0.5,0.2,1.1,0.4,1.6c-0.4-0.2-0.7-0.3-1.1-0.5c-1.4-0.7-2.8-1.5-4.2-2.3
		c0-0.5,0.1-0.8,0.1-1.2c0.2-0.8,0.3-1.5-0.3-2.6c-0.2-0.3-0.6-0.4-1-0.2c-0.3,0.2-0.4,0.6-0.2,1c0.4,0.6,0.2,1.1,0.2,1.6
		c0,0.2-0.1,0.4-0.1,0.7c-2.4-1.3-4.8-2.7-7.3-4.2c-0.3-0.2-0.8-0.1-1,0.2c-0.2,0.3-0.1,0.8,0.2,1c2.2,1.3,4.4,2.6,6.6,3.9
		c-0.1,0-0.2,0.1-0.2,0.1c-0.8,0.4-1.4,0.8-2.5,0.8c-0.4,0-0.8,0.4-0.8,0.7c0,0.4,0.3,0.8,0.8,0.8c1.4-0.1,2.2-0.4,3.1-0.9
		c0.4-0.2,0.8-0.4,1.2-0.6c1.6,0.9,3.2,1.7,4.7,2.5c0.2,0.1,0.5,0.2,0.7,0.3c-0.9,0.3-1.9,0.5-2.8,0.8c-0.3,0.1-0.7,0.2-1.1,0.2
		c-0.3,0.1-0.6,0.4-0.5,0.8c0.1,0.4,0.4,0.6,0.8,0.6l1-0.2c1.5-0.3,2.9-0.6,4.3-1.3c1.3,0.6,2.5,1.2,3.8,1.7c-0.2,0-0.4,0.1-0.6,0.2
		c-1.1,0.3-2.1,0.5-3.1,0.6c-0.4,0.1-0.6,0.4-0.6,0.8c0.1,0.4,0.5,0.6,0.8,0.6c1.1-0.2,2.2-0.4,3.3-0.8c0.8-0.2,1.5-0.4,2.3-0.7
		c1.6,0.7,3.2,1.3,4.9,1.9c0.4,0.2,0.8-0.1,0.9-0.4C144.4,22.8,144.1,22.4,143.8,22.2z M24.8,151.4c-0.2,0-0.4-0.1-0.5-0.1
		c-0.2,0-0.4,0-0.5,0.1c-0.3,0.1-0.6,0.2-0.8,0.4c-0.4,0.3-0.6,0.8-0.6,1.3c0,0.5,0.2,1,0.6,1.3c0.3,0.3,0.8,0.6,1.3,0.6
		s1-0.2,1.3-0.6c0.4-0.3,0.6-0.8,0.6-1.3c0-0.5-0.2-1-0.6-1.3C25.4,151.6,25.1,151.4,24.8,151.4z M172.1,47.3c0-0.2,0.1-0.4,0.1-0.7
		c0.1-0.3,0.2-0.6,0.2-0.9c0.2-1.5,0.4-3.2,0.4-4.9c0-0.4-0.3-0.7-0.8-0.7c-0.4,0-0.7,0.3-0.7,0.7c0,1.6-0.2,3.2-0.4,4.6
		c-0.6-1.1-1.3-2.2-2-3.3c0-0.1,0.2-0.9,0.3-1.1c0.2-1.4,0.3-2.9,0.2-4.6c0-0.3-0.3-0.6-0.7-0.6s-0.8,0.4-0.7,0.8
		c0.1,1.3,0,2.7-0.3,3.8c-0.8-1.2-1.6-2.4-2.4-3.5c0.2-0.8,0.4-1.6,0.5-2.4c0.1-1,0.2-2.1,0.1-3c0-0.4-0.3-0.8-0.7-0.8
		c-0.4,0-0.7,0.3-0.7,0.8c0,1,0,2-0.2,2.8c0,0.3-0.1,0.6-0.1,0.9c-0.5-0.7-1-1.4-1.6-2.1c-0.8-1.1-1.7-2.2-2.6-3.3
		c-0.2-0.3-0.8-0.3-1.1-0.1c-0.2,0.2-0.3,0.6-0.1,1c0.9,1.1,1.8,2.2,2.6,3.3c0.5,0.6,0.9,1.3,1.4,1.9c-1-0.2-2-0.5-2.9-1.3
		c-0.3-0.2-0.8-0.2-1.1,0.1c-0.2,0.2-0.2,0.8,0.1,1c1.5,1.3,2.9,1.5,4.5,1.9c0.2,0,0.4,0,0.6,0.1c0.9,1.3,1.8,2.6,2.6,4
		c-0.4,0-0.8-0.1-1.1-0.2c-0.8-0.2-1.5-0.5-2.2-0.8c-0.3-0.2-0.8-0.1-0.9,0.3c-0.2,0.3-0.1,0.8,0.3,1c0.7,0.3,1.5,0.6,2.4,0.9
		c0.8,0.2,1.6,0.3,2.4,0.2c0.7,1.2,1.4,2.3,2.1,3.5c-0.4-0.1-0.8-0.2-1.2-0.4c-0.9-0.2-1.8-0.7-2.6-1.1c-0.4-0.2-0.8-0.1-1,0.3
		c-0.2,0.3-0.1,0.8,0.2,1c1,0.5,1.9,0.9,2.8,1.2c0.8,0.3,1.7,0.4,2.6,0.5c1.2,2.3,2.4,4.5,3.5,6.8c0.2,0.3,0.6,0.5,0.9,0.3
		c0.4-0.2,0.6-0.6,0.4-1C174.5,51.9,173.4,49.6,172.1,47.3z M149.8,19.9c0.6,0,1.1-0.2,1.4-0.5c0.3-0.3,0.6-0.8,0.6-1.3
		c0-0.6-0.2-1-0.6-1.3c-0.3-0.3-0.8-0.6-1.4-0.6c-0.5,0-1,0.2-1.3,0.6c-0.3,0.3-0.6,0.7-0.6,1.3c0,0.5,0.2,1,0.6,1.3
		S149.3,19.9,149.8,19.9z M181.3,57.4c0.2,0,0.4,0.1,0.5,0.1c0.2,0,0.4,0,0.6-0.1c0.3-0.1,0.6-0.2,0.8-0.4c0.3-0.3,0.6-0.8,0.6-1.3
		c0-0.5-0.2-1-0.6-1.3c-0.3-0.3-0.8-0.6-1.4-0.6c-0.5,0-1,0.2-1.3,0.6c-0.3,0.3-0.6,0.8-0.6,1.3c0,0.5,0.2,1,0.6,1.3
		C180.7,57.2,181,57.3,181.3,57.4z M55.3,24.5c0.6,0,1-0.2,1.4-0.5c0.2-0.2,0.3-0.5,0.4-0.8c0-0.2,0.1-0.3,0.1-0.5
		c0-0.6-0.2-1-0.6-1.3c-0.3-0.3-0.8-0.6-1.3-0.6c-0.5,0-1,0.2-1.3,0.6c-0.3,0.3-0.6,0.7-0.6,1.3c0,0.5,0.2,1,0.6,1.3
		C54.4,24.4,54.9,24.5,55.3,24.5z M10.3,105.3c0.5,0,1-0.2,1.3-0.6l0-0.1c0.3-0.3,0.5-0.8,0.5-1.3h0.1c0-0.5-0.2-1-0.6-1.3
		c-0.2-0.2-0.5-0.3-0.8-0.4c-0.2,0-0.4-0.1-0.5-0.1c-0.2,0-0.4,0-0.5,0.1c-0.3,0.1-0.6,0.2-0.8,0.4c-0.4,0.3-0.6,0.8-0.6,1.3
		s0.2,1,0.6,1.3C9.3,105.1,9.8,105.3,10.3,105.3z M23.5,60.8c0.5,0,0.9-0.2,1.2-0.5c0.2-0.3,0.5-0.7,0.5-1.1c0-0.5-0.2-0.9-0.5-1.2
		c-0.4-0.2-0.8-0.5-1.2-0.5c-0.5,0-0.9,0.2-1.2,0.5c-0.3,0.3-0.5,0.8-0.5,1.2c0,0.4,0.2,0.8,0.5,1.1C22.6,60.6,23,60.8,23.5,60.8z
		 M58.6,34.9c0.2,0,0.4,0,0.5-0.1c0.3-0.1,0.6-0.2,0.9-0.4c0.2-0.2,0.3-0.5,0.4-0.8c0-0.2,0.1-0.3,0.1-0.5c0-0.5-0.2-1-0.6-1.3
		c-0.3-0.3-0.8-0.6-1.3-0.6c-0.5,0-1,0.2-1.3,0.6c-0.3,0.3-0.6,0.8-0.6,1.3s0.2,1,0.6,1.3c0.2,0.2,0.5,0.3,0.8,0.4
		C58.3,34.9,58.5,34.9,58.6,34.9z M61.3,174l-4.2-6.7c-0.2-0.4-0.7-0.5-1-0.2c-0.3,0.2-0.5,0.6-0.2,1l3,4.9c-1.5-0.7-2.9-1.3-4.3-2
		c-0.6-1-1.3-2.1-2-3.1c-0.8-1.1-1.4-2.3-2-3.4c-0.2-0.3-0.7-0.5-1-0.3c-0.4,0.2-0.5,0.7-0.3,1v0.1h0c0.6,1.1,1.3,2.3,2,3.4
		c0.3,0.4,0.6,0.9,0.8,1.3c-1.5-0.8-3-1.5-4.5-2.3c-0.5-0.7-1.1-1.5-1.8-2.7c-0.6-0.9-1.2-1.9-1.8-2.6c-0.2-0.4-0.7-0.5-1-0.2
		c-0.3,0.2-0.4,0.6-0.2,1c0.7,0.9,1.2,1.8,1.8,2.7c0.1,0.1,0.2,0.3,0.3,0.4c-3-1.6-5.9-3.2-8.8-4.9c-0.3-0.2-0.8-0.1-1,0.2
		c-0.2,0.3-0.1,0.8,0.2,1c3,1.8,6.1,3.5,9.2,5.2c-0.3,0-0.5,0-0.8,0.1c-1.1,0.1-2.2,0.2-3.3,0.3c-0.4,0-0.7,0.4-0.7,0.8
		c0.1,0.4,0.5,0.7,0.9,0.6c1-0.2,2.1-0.2,3.1-0.3c0.9-0.1,2-0.2,2.9-0.3c1.5,0.8,2.9,1.5,4.4,2.3c-0.5,0-1,0.1-1.5,0.1
		c-1.5,0.1-2.9,0.2-4.3,0.3c-0.4,0-0.6,0.4-0.6,0.8c0.1,0.4,0.4,0.7,0.8,0.6c1.3-0.2,2.8-0.2,4.1-0.3c1.4-0.1,2.7-0.2,4-0.3
		c1.6,0.8,3.2,1.5,4.8,2.2l-5.5,1.4c-0.4,0.1-0.6,0.5-0.5,0.8c0.1,0.4,0.5,0.6,0.8,0.6l7.3-1.8c1.2,0.5,2.4,1,3.6,1.5
		c-1.9,0.8-5.3,1.2-5.5,1.2c-0.4,0.1-0.7,0.5-0.6,0.9c0,0.3,0.4,0.7,0.8,0.6c0.2,0,4.5-0.7,7.2-1.9c0.9,0.4,1.8,0.8,2.6,1.1
		c0.3,0.2,0.7,0,0.9-0.4c0.2-0.4,0-0.8-0.4-1C66.5,176.3,63.9,175.2,61.3,174z M201.9,102.8c0-0.5-0.6-0.8-1-0.7
		c-3.6,1.7-6.6,3.6-9.3,5.8c-0.2-2.2-0.6-4.5-1.2-6.7c5.2-7.2,7.5-14.9,7.2-23.1c-0.4-8.4-3.4-17.2-9-26.6c-0.3-0.5-1.1-0.5-1.3,0.1
		l-5.1,11.8c-0.4,1.2-0.8,2.4-1.1,3.6c-1-2.6-2.6-7-2.6-8c0-0.5,0.1-1,0.1-1.5c0.1-3.9,0.1-7.1-1.7-16.2l-0.1-0.1
		c-2.5-7.4-10-13.6-16.2-17.5c-1.1-0.8-2.3-1.5-3.4-2.1c-1.1-0.6-2.1-1.1-2.8-1.4c-0.5-0.2-1.1,0.1-1.1,0.6c-0.1,2.2,0,4.2,0.2,6.2
		c-0.3-0.2-0.5-0.4-0.8-0.5c-0.6-0.4-1.1-0.9-1.9-1.4c0,0,0,0,0,0c-0.1-0.1-2.9-2.6-4.3-4.1c-1.2-1.4-2.3-2.9-3-4.2
		c-0.2-0.3-0.2-0.6-0.4-0.8v0c0,0-0.1-0.1-0.1-0.1l0,0l0,0c-1.7-1.8-3.4-3.5-5.7-5.1c-2.4-1.6-5.2-3-9.2-4.3c0,0-4.4-0.9-9.1-1.2
		c-4.1-0.3-8.2-0.7-11.6-2l0,0c-0.1,0-0.2-0.1-0.3,0c-0.4,0.1-0.6,0.2-0.6,0.4c-0.1,0.2-0.1,0.2,0,0.5c0.4,2.6,1.5,4.8,2.9,6.9
		c-2.8,1.4-5.2,3-7.2,4.5c-2.3,1.8-4.1,3.6-5.7,5.6c-0.3,0.4-0.1,1.1,0.5,1.1c3.9,0.8,7.7,1.1,11.7,0.9c3.7-0.2,7.4-0.7,11.4-1.5
		c0.2,0.1,2.1,1.3,3,1.8c4.4,2.3,9.3,3.5,14.4,3.5l0,0c0,0,4.6-0.3,6.4-0.4c1.8-0.2,5.4-0.4,5.5-0.4c0.1,0,3.6,2.5,4.4,2.9
		c1.5,8.4,5.8,14.7,8.7,18.2c0.8,0.9,1.4,1.5,1.9,2.1c0.5,0.5,0.8,0.8,1,0.9c1.9,1.5,3.8,3.2,5.7,5.2c1.9,2,3.8,4.3,5.8,6.8l0,0
		c0.6,1.1,1.1,2.4,1.7,3.7c0.6,1.3,1.2,2.6,1.8,3.6c-0.4,1.8-0.7,3.5-0.9,5.2c-0.3,2.8-0.4,5.5-0.2,8.2c-0.7-0.8-1.4-1.6-2.1-2.4
		c-1.5-1.7-3.2-3.5-4.7-5.3c-0.4-0.4-1.1-0.3-1.3,0.2c-2.5,7.4-3,13.7-2.1,19.3c1,5.6,3.5,10.4,7,14.5c0,0,2.7,2.3,4.1,3.4
		c1.4,1.1,2.8,2.3,4.2,3.5c-1.1,1.6-2,3.4-2.7,5.1c-0.6,1.5-1.2,3.1-1.7,4.7c-0.2,1-0.5,2-0.7,3c-0.4-0.9-0.9-1.8-1.5-2.7
		c-1-1.7-2.2-3.3-3.7-4.9c-0.3-0.4-1.1-0.2-1.2,0.2c-1.1,3.7-2.4,7.1-3.9,10.4c-0.2,0.6-0.6,1.2-0.9,1.9c-0.2,0.6-0.9,1.7-0.9,1.7
		c-2.9,4.1-4.9,8.2-6.2,11.9c-1.3,3.8-1.8,7.4-1.7,10.7c-0.4,0.2-0.9,0.3-1.3,0.5c-7.2,3-12.9,7.5-17.3,13.6
		c-1.5,2.5-3.2,4.4-5.2,5.8c-1.7,1.1-3.7,1.8-6,2.1c4.3-4.7,7.2-10.6,9.2-17c0.2-0.6-0.4-1.1-1-0.9c-1.9,0.8-3.8,1.4-5.7,1.9
		c-2.1,0.4-4,0.7-6.1,0.8h-0.1l0.1,0.5v0.2l-0.1-0.7c-4.8,0.8-9.5,2.1-13.6,4.1c-2.3,1.2-4.3,2.6-6.3,4.3c-1.5-1.6-3.8-2.9-6.7-4
		c-3.2-1.1-11.9-2.5-11.9-2.5c-2.5-0.2-5.1-0.4-7.6-0.8c-2.5-0.3-5.1-0.8-7.6-1.5c-0.6-0.1-1.1,0.5-0.8,1.1
		c2.4,4.8,6.1,8.5,10.6,11.6c1.7,1.1,3.4,2.1,5.3,3.1c-0.5-0.2-1-0.3-1.5-0.4c-4.1-1.2-8.3-2.6-12.3-4.1
		c-7.3-6.6-14.7-11.7-22.2-14.7c-0.6-0.2-1.1-0.4-1.6-0.6c0-3.3-0.3-6.7-1.1-10.2c-1-3.6-2.6-7.4-5.2-11.2c0,0-3-3.9-4.4-6.1
		c-1.4-2.3-2.7-4.7-3.8-7.5c-0.2-0.5-1.1-0.6-1.3-0.1c-1.2,2.2-2.1,4.5-2.6,7c-1.9-5-4.8-9.7-8.5-14c6.4-5.9,10.8-12.3,13.1-19
		c2.4-6.9,2.5-14.1,0.5-21.8c-0.1-0.5-0.7-0.7-1-0.5c-1.8,0.8-3.4,2-5,3.4c-1.1,1-2.3,2.3-3.3,3.6c-0.1-1.7-0.3-3.4-0.6-5.2
		c-0.2-1.1-0.4-3.4-0.4-3.4c-0.4-1.4-0.7-2.7-1.1-3.9c0.7-1,1.1-1.7,1.4-2.5c0.3-0.8,1.5-2.7,1.5-2.8c6.4-4.1,12.4-10.1,16.7-16.7
		c0.8-1.3,1.6-2.6,2.4-3.9c0.8-1.4,1.4-2.7,2-4c0,0,2.1-7.1,2.6-10c1.1-0.6,2.2-1.2,3.3-1.7c1.1-0.6,2.3-1.1,3.6-1.9
		c1.8,0.1,3.4,0,5.1,0s3.4-0.2,5.1-0.1c3.8,0.2,7.5-0.2,10.9-1.1C82.8,26,86,24.5,89,22c2.8-2.5,5.1-5.1,6.9-7.7
		c1.6-2.7,2.7-5.6,2.9-8.8c0.1-0.5-0.5-0.9-1-0.8c-4.5,1.8-9.3,2.8-14.1,3.9C82,9,80.3,9.5,78.6,9.9l0,0c-5.8,1.1-10.1,3.5-13.4,6.5
		c-3.3,3.1-5.7,6.7-7.8,10.6c-1.1,0.6-2.2,1.1-3.4,1.7c-0.8,0.3-1.6,0.7-2.4,1.1c0.1-0.8,0.2-1.5,0.3-2.3c0.2-1.3,0.4-2.8,0.6-4.1
		c0.2-0.6-0.5-1-1-0.7c-5.5,2.4-8.6,5-12.3,8.1c-1.1,0.9-3.7,3.1-3.7,3.1l0,0c-9,8.7-9.2,21.2-9.3,30v2c-0.8,1.1-1.2,1.9-1.5,2.6
		c-0.1,0.4-0.3,0.8-0.6,1.2c-0.4-1.5-0.9-2.8-1.3-4.1c-1.1-2.8-2.1-5.3-3.5-8c-0.2-0.5-1-0.6-1.2-0.1c-2.9,4.7-4.3,8.7-5.9,13.2
		c-0.6,1.5-1.8,4.8-1.8,4.8c-3.3,12.4,2.3,24.3,6.1,32.6c0.2,0.5,0.4,1,0.6,1.3v2.1c0,0.4,0,0.7,0,1.5c-0.8-0.8-1.7-1.5-2.6-2.1
		c-1.4-1.1-2.8-2.1-4.4-3.2c-0.5-0.3-1.1,0-1.1,0.6c-0.4,8.3,0.3,15.7,2.4,21.8c2.1,6.1,5.7,11,10.7,14.5c4,2.8,7.4,5.9,10,9.3
		c0.5,0.8,1,1.4,1.5,2.1c0.1,0.1,0.2,0.3,0.3,0.4c0.1,0.2,0.2,0.5,0.2,0.7c-2.2-0.1-4.3,0-6.6,0.2c-0.6,0-0.9,0.8-0.5,1.2
		c1.9,2,3.7,4.1,5.6,6.6c1.9,2.5,5.6,7.8,5.6,7.8c4.2,5,9.3,7.9,14.9,9.1c5.6,1.2,11.7,1,18.2-0.1l20.4,5.6c-4.1,2.2-9,3.9-14.6,5.2
		c-0.2,0.1-0.5,0.5-0.5,0.8c0,0.6,0,1.2,0.2,1.8c0.2,0.6,0.6,1.3,1.2,1.9c0.1,0.1,0.5,0.2,0.6,0.2c2.7-0.5,5.3-1.1,7.9-1.9
		c2.7-0.8,8.1-2.9,8.1-2.9c1.5-0.8,3.6-0.9,6.2-1c1.3-0.1,2.7-0.2,4.3-0.3c1.2-0.1,2.3-0.3,3.4-0.5c0.1,0.1,7.9,2.5,11.8,3.4
		c3.8,0.9,7.7,1.5,11.9,1.6c0.2,0,0.5-0.2,0.6-0.3c0.6-0.9,1-1.9,1.1-2.8c0.1-1-0.1-1.9-0.6-2.9c-0.1-0.2-0.4-0.3-0.6-0.4
		c-2.4-0.2-4.8-0.5-7.3-0.9c-2.1-0.4-4-0.8-6-1.3c2.8-1.4,5.4-3.1,7.6-5.1c1.2,0,2.3-0.1,3.3-0.2c1.1-0.1,2.2-0.2,3.3-0.2
		c6.6,1.2,12.8,1.3,18.5-0.1c5.7-1.4,10.9-4.1,15.7-8.5c4.5-4.1,7.9-7.7,10.3-10.9c2.5-3.1,3.8-5.6,4.5-7.7c0.1-0.5-0.3-1-0.9-0.9
		c-1.3,0.3-2.7,0.5-4,0.7c1.1-1.7,2-3.6,2.7-5.5c3.5-1.4,6.9-3,10.3-6.7c3.3-3.6,9.1-17,9.6-18.6c0.5-1.7,1.5-10.1,1.8-15.4
		c0.1-1.1,0.1-2.1,0.1-3C202.1,104.5,202.1,103.6,201.9,102.8z M108.7,21.5c-3.4,0.2-6.7-0.1-10.1-0.7c1.3-1.5,2.7-2.9,4.5-4.3
		c2-1.5,4.4-3,7.2-4.4c0.1,0.1,1.9,2.2,2.7,3c-3.2,0.8-9,3-9,3c-0.4,0.2-0.6,0.6-0.4,1c0.1,0.3,0.6,0.6,0.9,0.4c0,0,7.4-2.9,9.8-3.2
		c1.2,1.1,4.3,3.8,4.4,4C115.2,21.1,111.9,21.5,108.7,21.5z M144,25c-1.9,0.2-3.8,0.3-5.4,0.4c-5.3,0.2-10.2-1-14.6-3.4
		c-0.9-0.4-8.7-5.2-12.3-10.4c-0.1-0.1-0.4-0.5-0.9-1.3c-0.5-0.8-1.8-2.2-2.5-5.4c3.4,1.1,7,1.4,10.7,1.7c3,0.2,5.7,0.3,8.8,1.1
		c3.1,0.9,6.5,2.5,8.7,4.1c2.2,1.4,3.8,3.1,5.5,4.9c0.6,1.6,1.9,3.5,3.4,5.2c0.9,1,1.9,1.9,2.7,2.7C146.8,24.8,145.4,24.9,144,25z
		 M172.3,54.3c-1.9-2-5.9-5.4-5.9-5.4c-0.1-0.1-2-1.9-2.7-2.7c-3.5-4.2-9.2-12.8-8.9-24.2c0.6,0.3,1.1,0.6,1.7,0.9
		c1,0.5,2.1,1.1,3.3,1.9c5.9,3.8,13.1,9.8,15.6,16.7h0c1.9,9,1.8,12.1,1.7,15.9v1.5c0,0.3,0.1,0.7,0.2,1.2
		C175.7,58.1,174,56,172.3,54.3z M66.1,17.4c3.2-2.8,7.3-5.1,12.8-6.2c1.7-0.4,3.4-0.7,5.1-1.1c4.5-1,8.9-1.9,13.2-3.5
		c-0.4,2.5-1.2,4.8-2.6,6.9c-1.6,2.5-3.8,5-6.6,7.4c-2.7,2.2-5.7,3.7-9,4.6c-3.3,0.9-6.8,1.2-10.5,1.1c-1.9-0.2-3.6-0.1-5.3,0
		c-1.3,0.1-2.7,0.1-4.1,0.1C61.1,23.2,63.3,20,66.1,17.4z M27.8,63.9c0.1-8.7,0.2-21.1,9.1-29.3c1.2-1,2.3-1.9,3.4-2.7
		c3.3-2.8,6.2-5.2,10.7-7.4c-0.2,1-0.2,1.9-0.4,2.8c-0.6,4.1-1.1,8.3-3.3,13.8c-0.5,1.3-1.1,2.5-1.9,3.8c-0.6,1.3-1.5,2.6-2.3,3.8
		c-4,6.1-9.4,11.8-15.4,15.7C27.8,64.3,27.8,64.1,27.8,63.9z M82.8,175.9c-3.9-2.6-7.2-5.8-9.4-9.7c2.1,0.5,4.1,0.9,6.2,1.2
		c2.5,0.4,5,0.6,7.6,0.8l0,0c4.6,0.5,8.5,1.2,11.6,2.3c2.7,0.9,4.8,2.2,6.1,3.6c-1.1,1.1-2.1,2.2-3,3.5c-1.5-0.6-3-1.3-4.4-1.9
		c-0.5-1-1.4-2.2-2.4-3.2c-0.2-0.2-1.2-1.4-1.4-1.4c-0.3-0.2-0.7-0.1-1,0.1c-0.2,0.3-0.2,0.7,0,0.9l0,0c0,0,2.1,2.1,2.4,2.6
		c-1.2-0.5-2.4-0.9-3.6-1.5c-0.9-1.8-1.9-3.1-2.9-3.9c-0.2-0.2-0.5-0.3-0.8-0.4c-0.2-0.2-0.5-0.2-0.8-0.2c-0.4-0.1-0.8,0.2-0.8,0.7
		c-0.1,0.3,0.8,0.8,1,0.9c0.2,0.1,1.5,1.3,2.1,2.1c-3-1.2-6.1-2.5-9.4-3.8c-0.4-0.2-0.8,0-1,0.4c-0.2,0.3,0.1,0.8,0.4,0.9
		c3,1.2,6.2,2.5,9.4,3.9c-0.2,0-0.4,0-0.6,0c-0.9,0.1-1.9,0-2.9-0.1c-0.4,0-0.8,0.2-0.8,0.6c-0.1,0.4,0.2,0.8,0.6,0.8
		c1.1,0.1,2.1,0.1,3.1,0.1c1-0.1,2.1-0.2,3-0.6c1.3,0.5,2.6,1.1,4,1.6c-0.5,0.2-1,0.3-1.5,0.4c-1.1,0.2-2.2,0.3-3.3,0.4
		c-0.4,0-0.7,0.3-0.7,0.8c0,0.4,0.3,0.8,0.8,0.8c1.1-0.1,2.4-0.2,3.5-0.5c1.1-0.2,2.1-0.6,3-1c1.3,0.6,2.7,1.1,4,1.7
		c-0.9,1.6-2,3-3.3,4.3c-0.7-0.2-1.3-0.4-2-0.6C91.1,180.8,86.7,178.6,82.8,175.9z M26.9,86.4C27,86.4,27,86.4,26.9,86.4
		c1.3-2.1,2.7-3.6,4.1-4.9c1.2-1.1,2.5-2,3.9-2.7c1.7,7.1,1.5,13.8-0.6,20.1c-2.2,6.6-6.5,12.7-12.7,18.5c-0.4-0.5-0.8-0.9-1.3-1.3
		c1.1-1.8,2.2-3.8,3.3-5.8l0,0c0.9-0.6,0.9-0.6,1-0.6c1.1-0.8,2.2-1.4,3.3-2.1c0.3-0.2,0.4-0.7,0.2-1c-0.2-0.3-0.7-0.5-1-0.2
		c-0.8,0.5-1.5,0.9-2.3,1.4c0.8-1.5,1.5-3,2.2-4.6c0.7-0.6,1.4-1,2.1-1.4c0.8-0.3,1.4-0.6,2.1-0.8c0.4-0.1,0.7-0.5,0.6-0.8
		c-0.1-0.4-0.5-0.6-0.9-0.6c-0.8,0.2-1.5,0.5-2.4,1c-0.1,0-0.2,0.2-0.4,0.2c0.5-1.1,0.9-2.3,1.4-3.5c0,0,0,0,0,0
		c0.4-0.5,0.9-0.9,1.5-1.4c0.8-0.4,1.5-0.8,2.4-1.2c0.4-0.2,0.5-0.7,0.3-1c-0.2-0.4-0.6-0.5-0.9-0.3c-0.9,0.4-1.7,0.8-2.4,1.3
		c0.4-1.1,0.8-2.3,1.1-3.5c0,0,0.1-0.1,0.2-0.1c0.4-0.5,0.8-1,1.2-1.3c0.5-0.4,0.9-0.8,1.5-1.1c0.3-0.2,0.4-0.6,0.2-1
		c-0.2-0.3-0.6-0.4-1-0.2c-0.4,0.2-0.8,0.5-1.2,0.8c0.2-0.8,0.5-1.5,0.7-2.3c0.1-0.4-0.2-0.8-0.6-0.9c-0.3-0.2-0.8,0.1-0.9,0.5
		c-0.4,1.7-0.9,3.4-1.4,4.9c-0.6,1.6-1.1,3.2-1.6,4.7c-2.8,7.7-6.1,14.3-9.4,19.8c-0.2-0.2-0.4-0.4-0.6-0.6c0,0,0-3.6,0.1-5
		c1.2-2,2.3-4.6,3.4-7.1c0.7-1.7,2.3-5,2.3-5C26.4,93.5,27,90,26.9,86.4z M11.9,76L11.9,76c0.7-1.6,1.3-3.3,1.7-4.7
		c1.4-4,2.7-7.6,5.1-11.7c1.1,2.2,2,4.3,2.8,6.6c1,2.8,2,5.9,2.9,9.6l0,0c0.1,1.1,0.2,2.1,0.4,3.2c0.8,6,1.4,11.6-1.7,17.5
		c0,0-1.6,3.4-2.4,5.1c-0.9,2.1-1.9,4.2-2.8,6C18,107.6,8.7,87.9,11.9,76z M22.9,143.4c-4.8-3.3-8.1-7.9-10.1-13.8
		c-1.9-5.7-2.6-12.3-2.3-19.9c1.1,0.8,2.2,1.5,3.2,2.3c1.4,1.1,2.7,2.2,3.9,3.3c6.2,5.9,10.4,12.4,12.8,19.6c0,0.1,0.1,0.2,0.2,0.3
		c-0.2,1.5-0.2,2.9-0.2,4.5c0.1,3.8,0.9,8,2.1,12.5C29.9,149,26.7,146,22.9,143.4z M31.9,139.7c-0.2-4.5,0.6-8.6,2.3-12.2
		c1,2.3,2.1,4.3,3.3,6.2c1.4,2.3,2.9,4.3,4.5,6.2c2.5,3.7,4,7.3,5,10.7c0.8,3.2,1.1,6.3,1.1,9.3c-1.3-0.5-2.6-0.8-4-1.2
		c-0.2-0.5-0.5-1.1-0.7-1.6c0.3-0.6,0,0.2,0,0c0.8-2,1.6-4,2.4-5.8c0.2-0.4-0.1-0.8-0.4-1c-0.4-0.1-0.8,0.1-1,0.4
		c-0.6,1.6-1.2,3.1-1.8,4.5c-0.6-1.4-1.1-2.8-1.7-4.3c0.3-0.7,0.7-1.4,1-2.1c0.5-1,0.9-2.1,1.3-2.9c0.2-0.3,0-0.8-0.3-0.9
		c-0.4-0.2-0.8,0-1,0.3c-0.4,1-0.9,2-1.3,2.9c-0.1,0.3-0.2,0.5-0.4,0.8c-0.2-0.4-0.3-0.9-0.5-1.3c-0.3-0.8-0.5-1.5-0.8-2.3
		c0.1-0.1,0.2-0.2,0.2-0.3c0.1-0.7,0.2-1.3,0.5-2.1c0.3-0.6,0.7-1.3,1.1-1.9c0.2-0.2,0.2-0.8-0.1-1c-0.3-0.2-0.7-0.2-1,0.1
		c-0.7,0.8-1.1,1.5-1.4,2.4c0,0.1-0.1,0.2-0.1,0.3c-0.6-2.1-1.1-4.2-1.6-6.2c-0.1-0.4-0.5-0.7-0.8-0.5c-0.4,0.1-0.7,0.4-0.6,0.8
		c0.5,2.3,1.1,4.5,1.7,6.7c-0.8-0.5-1.7-1-2.6-1.8c-0.3-0.2-0.8-0.2-1,0.2c-0.3,0.2-0.2,0.7,0.1,1c1.1,0.9,2.3,1.7,3.4,2.2
		c0.2,0.1,0.4,0.2,0.6,0.2c0.3,0.9,0.6,1.8,0.9,2.7c0.2,0.6,0.4,1.1,0.6,1.7c-0.3-0.2-0.6-0.3-0.9-0.4c-0.9-0.5-1.7-0.9-2.6-1.2
		c-0.4-0.2-0.8,0-1,0.3c-0.1,0.4,0.1,0.8,0.4,1c0.9,0.3,1.7,0.8,2.5,1.1c0.7,0.4,1.4,0.8,2.2,1.1c0.8,2.2,1.7,4.3,2.6,6.5
		c-2.1-0.4-4.1-0.8-6.2-0.9c-0.3-0.5-0.6-1-0.9-1.5C33.2,149.8,32.1,144.5,31.9,139.7z M71.3,180.6c-6.4,1.2-12.4,1.5-17.8,0.2
		c-5.3-1.2-10.2-3.9-14.1-8.6l0,0c-1.9-2.7-3.7-5.4-5.5-7.9c-1.5-2-3.1-4-4.7-5.7c7.4-0.5,14.5,0.8,21.5,3.7c7.4,3.1,14.8,8,22,14.6
		c0.1,0,8.6,3,12.8,4.3c3.2,0.9,6.5,1.9,9.8,2.7c0.4,0.2,0.9,0.4,1.3,0.6c-0.9,0.8-1.9,1.5-3,2.1L71.3,180.6z M125.2,190.1
		c2.3,0.4,4.6,0.7,7,0.9c0.2,0.6,0.3,1.1,0.3,1.7c-0.1,0.6-0.3,1.1-0.6,1.8c-3.8-0.2-7.5-0.8-11.2-1.5c-3.2-0.7-6.3-1.5-9.4-2.5
		c2.3-0.6,4.4-1.3,6.4-2.1c0.1,0.1,0.2,0.2,0.3,0.3C120.3,189.2,122.7,189.7,125.2,190.1z M126.5,180.8c-5.1,4.9-12.2,8.3-21.5,9.3
		c-1.5,0.2-2.9,0.2-4.2,0.2c-2.8,0.1-5,0.2-6.9,1.2v0c-2.6,1.1-5.2,2-7.8,2.8c-2.4,0.7-4.9,1.3-7.4,1.7c-0.3-0.4-0.5-0.8-0.6-1.1
		c-0.1-0.3-0.2-0.6-0.2-0.8c6-1.5,11.2-3.4,15.4-5.8c4.1-2.4,7.2-5.4,9.2-9c0.2-0.1,0.4-0.2,0.4-0.4c0-0.1,0-0.2,0-0.4
		c2.7-3.7,6.1-6.5,9.9-8.5c3.9-2.1,8.3-3.3,13.1-4l0,0c2.2-0.1,4.2-0.3,6.2-0.8c1.6-0.4,3.1-0.9,4.6-1.4
		C134.6,170.4,131.4,176.3,126.5,180.8z M181.1,74.7c0.4-3.5,1.2-7.1,2.6-10.9l4.4-10.3c5,8.6,7.8,16.8,8.1,24.5
		c0.4,7.6-1.6,14.7-6.2,21.4c-0.2-0.7-0.4-1.3-0.7-2c-1.5-3.9-3.8-7.8-7.2-11.7l0,0c-0.4-0.4-0.7-0.8-1.1-1.2
		C180.6,81.4,180.7,78.1,181.1,74.7z M181.2,111.3c-1.3-1.1-2.6-2.1-3.9-3.2c-3.4-3.9-5.7-8.5-6.7-13.8c-0.8-5.1-0.4-10.8,1.7-17.3
		c1.3,1.5,2.6,2.9,3.9,4.4c1.2,1.3,2.3,2.6,3.4,3.9c0.1,0.1,0.2,0.2,0.3,0.3c0.4,0.4,0.7,0.8,1.1,1.2v0.1c3.4,3.7,5.6,7.4,7,11.3
		c1.3,3.6,2.1,7.3,2.3,11c-0.7,0.6-1.4,1.3-2.1,2c-1.1-1.8-2.2-3.6-3.3-5.4c0.4-1.1,0.7-2.8,0.9-5c0-0.6,0.2-3.1,0.2-3.2
		c0-0.4-0.3-0.8-0.8-0.8c-0.4,0-0.7,0.3-0.7,0.8c0,0-0.1,2.6-0.2,3c-0.1,1.3-0.2,2.5-0.4,3.3c-0.9-1.6-3.1-5.7-3.3-6.2
		c0.3-0.7,0.5-1.7,0.6-2.9c0.2-1.4,0.4-3,0.5-4.6c0-0.3-0.2-0.8-0.6-0.8s-0.8,0.2-0.8,0.6c-0.1,1.5-0.2,3.1-0.4,4.5
		c-0.1,0.4-0.2,0.8-0.2,1.1c-1.6-3.2-3-6.5-4.3-9.8c-0.2-0.4-0.6-0.6-1-0.4c-0.3,0.2-0.5,0.6-0.3,0.9c1.4,3.4,2.8,6.8,4.5,10.2
		c-0.5-0.2-1-0.5-1.6-0.8c-1-0.6-2.1-1.4-3.1-2.2c-0.3-0.2-0.8-0.2-1,0.1c-0.2,0.3-0.2,0.8,0.1,1c1.1,0.9,2.2,1.7,3.3,2.5
		c1.1,0.6,2.1,1.1,3.2,1.3c0.2,0.4,2.2,4.3,3,5.8c-0.6-0.3-4.2-2.3-5.5-3.2c-0.3-0.2-0.8-0.1-1,0.2c-0.2,0.3-0.2,0.8,0.2,1
		c1.3,0.9,6.2,3.6,7.5,4.1c1.1,1.9,2.3,3.9,3.6,5.8c-0.7,0.8-1.3,1.6-1.9,2.5C184,113.5,182.6,112.4,181.2,111.3z M180.7,155.4
		c-0.7,1.7-1.9,3.8-3.8,6.2c-2.4,2.9-5.7,6.4-10.1,10.6c-4.5,4.2-9.6,6.8-15,8.2c-5.6,1.3-11.5,1.2-18,0c0,0,1.5-0.9,2.5-1.5
		c2.3-1.5,4.1-3.7,5.7-6.2l0,0c4.2-5.8,9.8-10.1,16.7-13c1.3-0.6,2.7-1.1,4.1-1.5c1.4-0.4,2.9-0.8,4.5-1.1
		C167.2,157.1,176.7,156.1,180.7,155.4z M175.8,154.5c0,0.1-0.1,0.2-0.1,0.2c-2.1,0.3-4.1,0.5-6.2,0.6c0.3-0.6,0.6-1.3,0.8-1.9
		c0.4-1.1,1.3-3.5,1.3-3.7c0.8-0.3,1.7-0.9,2.6-1.6c1-0.8,2-1.8,2.9-2.8c0.2-0.2,0.2-0.7-0.1-1c-0.2-0.3-0.8-0.2-1,0
		c-0.9,1.1-1.9,2-2.8,2.7c-0.4,0.3-0.7,0.6-1.1,0.8c0.5-1.8,0.9-3.7,1.3-5.6c0.5-0.3,1.1-0.7,1.7-1.1c0.8-0.7,1.5-1.4,2.3-2.3
		c0.2-0.3,0.2-0.7-0.1-1.1c-0.2-0.2-0.8-0.2-1,0.1c-0.8,0.8-1.5,1.5-2.2,2.1c-0.1,0.1-0.3,0.2-0.4,0.4c0.5-2.8,0.8-5.7,1-8.6
		c0-0.4-0.2-0.8-0.6-0.8c-0.4-0.1-0.8,0.2-0.8,0.7c-0.2,2.9-0.5,5.8-1,8.7c-0.2-0.2-0.4-0.5-0.6-0.8c-0.4-0.8-0.8-1.5-1.2-2.5
		c-0.1-0.4-0.5-0.6-0.9-0.5c-0.4,0.2-0.6,0.6-0.4,1c0.4,1.1,0.8,2,1.4,2.8c0.4,0.7,0.9,1.2,1.4,1.6c-0.4,1.9-0.8,3.8-1.3,5.6
		c-0.2-0.2-0.4-0.5-0.5-0.8c-0.5-0.9-1-2.1-1.5-3.6c-0.2-0.3-0.6-0.6-1-0.4c-0.3,0.2-0.6,0.6-0.4,0.9c0.6,1.6,1.1,2.8,1.6,3.8
		c0.4,0.8,0.8,1.4,1.3,1.9c0,0.1-1.3,3.7-1.4,3.8c-0.6-0.8-1.2-1.7-1.7-2.5c-0.1-0.2-0.5-1.1-0.6-1.3c-0.2-0.3-0.6-0.5-0.9-0.4
		c-0.4,0.2-0.6,0.6-0.4,1c0.1,0.2,0.5,1.1,0.6,1.4c0.6,1.1,1.4,2.2,2.3,3.3c-0.1,0.3-0.2,0.5-0.4,0.8c0,0-6.6,1.7-7.1,1.9
		c0-3,0.5-6.2,1.7-9.7c1.2-3.6,3.2-7.4,6-11.5c0,0,1.6-3.2,1.9-3.8c1.4-2.9,2.5-6,3.6-9.3c1,1.2,1.9,2.5,2.7,3.8
		c1,1.5,1.8,3.2,2.4,4.7C182,139.7,180.2,147.9,175.8,154.5z M200.6,108.3c-0.2,5.1-1.1,11.2-1.9,15.2c0,0-6,14.5-9.2,17.9
		c-2.8,3-5.7,4.6-8.6,5.8c1.5-5,1.5-10.5-0.4-15.9c0,0,0.6-3.5,1-5.1c0.5-1.5,1-3.1,1.6-4.6c1.9-4.3,4.6-8.1,8.2-11.5
		c0.2,0,0.4-0.2,0.5-0.4c2.5-2.2,5.5-4.1,8.8-5.8c0,0.5,0,1,0,1.5C200.6,106.3,200.6,107.3,200.6,108.3z M18.9,100.5
		c0.2-1.8,0.2-3.8,0.2-5.9c1.3-1,2.2-2.6,3-4.3c0,0,0.8-1.7,1.2-2.3c0.2-0.3,0.2-0.8-0.2-1.1c-0.3-0.2-0.8-0.1-1,0.2
		c-0.6,0.8-1,1.6-1.4,2.5c-0.6,1.1-1.1,2.1-1.7,2.9c-0.1-1.9-0.2-4-0.3-6c1.3-0.7,1.9-1.9,2.6-3.1c0.4-0.7,0.8-1.4,1.2-2
		c0.2-0.2,0.2-0.8-0.1-1c-0.3-0.2-0.7-0.2-1,0.1c-0.6,0.7-1,1.4-1.4,2.1c-0.5,0.8-0.9,1.6-1.5,2.1c-0.1-1.7-0.2-3.5-0.3-5.2
		c1.2-1,2.4-4.3,2.8-5c0.2-0.3,0.2-0.7-0.1-1c-0.3-0.2-0.8-0.2-1.1,0.2c-0.6,0.8-1.4,3.3-1.7,3.8c-0.1-3.7-0.1-7.3,0.2-10.5
		c0.1-0.4-0.2-0.8-0.7-0.8c-0.4-0.1-0.8,0.2-0.8,0.7c-0.3,3.1-0.3,6.4-0.2,9.8c-0.2-0.4-1.2-2.1-1.4-2.4c-0.2-0.3-0.6-0.5-1-0.3
		c-0.4,0.2-0.5,0.7-0.4,1c0.2,0.2,2.1,3.3,2.8,4.1c0.1,1.7,0.2,3.5,0.3,5.2c-1.1-1-2.8-3.5-2.8-3.5c-0.2-0.3-0.6-0.5-1-0.3
		c-0.3,0.1-0.6,0.6-0.4,0.9c0.8,2,2.8,3.7,4.3,4.9c0.1,2.2,0.2,4.3,0.3,6.3c-0.5-0.6-1.1-1.2-1.6-1.9c-0.8-1.1-1.4-2.7-1.7-2.9
		c-0.3-0.2-1.1,0.2-1.1,0.2c-0.3,0.6,0.5,2.1,1.6,3.6c0.9,1.2,2.1,2.5,2.8,3.1c0,2,0,3.9-0.2,5.7c0,0.4,0.2,0.8,0.6,0.8
		C18.5,101.2,18.9,100.9,18.9,100.5z M26.8,139c0.2-1.2,0.3-2.4,0.2-3.5c0-1.2-0.1-2.4-0.2-3.6c0-0.4-0.4-0.7-0.8-0.7
		c-0.3,0.1-0.7,0.4-0.6,0.8c0.1,1.1,0.2,2.3,0.2,3.4c0,0.4,0,0.8,0,1.1c-0.6-1.2-1.3-2.5-2-3.8c0-2.3-0.4-5.3-0.6-7.4v-0.1
		c-0.1-0.4-0.5-0.7-0.8-0.7c-0.4,0.1-0.7,0.4-0.6,0.8v0.1c0.2,1.3,0.4,2.8,0.5,4.3c-0.1-0.1-0.1-0.2-0.2-0.4c-0.5-1-1.1-1.9-1.6-2.9
		c0-0.1-0.2-2.4-0.4-3.5c-0.1-1.2-0.2-2.4-0.3-3.5c0-0.4-0.3-0.8-0.8-0.8c-0.4,0-0.8,0.4-0.8,0.8v0.1c0.1,1.1,0.2,2.4,0.4,3.6
		c0,0,0,0.1,0,0.2c-1.3-2.5-2.7-4.9-4.1-7.3c-0.2-0.4-0.7-0.5-1-0.3c-0.4,0.2-0.5,0.6-0.3,1c1.6,2.8,3.1,5.5,4.6,8.3
		c-0.3-0.1-0.6-0.2-0.8-0.3c-1.1-0.4-2.1-0.8-3.1-1.1c-0.3-0.2-0.7,0-0.9,0.4c-0.2,0.4,0.1,0.8,0.4,0.9c1,0.3,2.1,0.8,3.1,1.2
		c0.8,0.4,1.6,0.6,2.4,0.9c0.6,1.1,1.2,2.1,1.7,3.2c0.3,0.5,0.6,1.1,0.8,1.6c-0.5-0.2-0.9-0.4-1.4-0.7c-1.2-0.6-2.4-1.2-3.4-1.5
		c-0.4-0.2-0.8,0.1-1,0.4c-0.1,0.4,0.2,0.8,0.5,0.9c1,0.3,2.1,0.9,3.3,1.5c1,0.6,2.1,1.2,3.1,1.5c0.7,1.3,1.3,2.5,2,3.8
		c0,0-0.1,0-0.1,0c-1.6-0.7-3.3-1.5-5-2.7c-0.3-0.2-0.8-0.2-1,0.2c-0.2,0.3-0.2,0.7,0.2,1c1.8,1.2,3.5,2.2,5.3,2.9
		c0.3,0.1,0.7,0.2,1,0.3c0.2,0.1,0.4,0.2,0.6,0.2c0.7,1.3,1.3,2.6,1.9,3.9c0.2,0.4,0.6,0.5,1,0.3c0.3-0.2,0.5-0.6,0.3-1
		C28.1,141.5,27.5,140.2,26.8,139z M31.5,65.5c-0.4,0.3-0.6,0.8-0.6,1.3c0,0.5,0.2,1,0.6,1.3c0.2,0.2,0.5,0.3,0.8,0.4
		c0.2,0,0.4,0.1,0.5,0.1c0.2,0,0.4,0,0.6-0.1c0.3-0.1,0.6-0.2,0.8-0.4c0.4-0.3,0.6-0.8,0.6-1.3c0-0.5-0.2-1-0.6-1.3
		c-0.3-0.3-0.8-0.6-1.3-0.6C32.3,64.9,31.8,65.2,31.5,65.5z M131.2,167.5c-3.2,2.1-6.3,4.2-9.4,6.2c0.1-0.5,0.2-0.9,0.3-1.4
		c0.2-0.8,0.6-1.7,1.1-2.6c0.2-0.3,0.1-0.8-0.2-1c-0.3-0.2-0.8-0.1-1,0.3c-0.6,1-1,2-1.2,2.9c-0.3,0.9-0.4,1.8-0.5,2.7
		c-1.2,0.8-2.4,1.5-3.6,2.2c0.2-0.9,0.5-1.9,0.9-3.1c0.1-0.3,0.2-0.7,0.5-1.1c0.2-0.4,0.3-0.8,0.6-1.1c0.2-0.4,0-0.8-0.3-1
		c-0.3-0.2-0.8-0.1-1,0.2v0.1c-0.2,0.4-0.4,0.8-0.6,1.1c-0.2,0.3-0.3,0.8-0.6,1.1c-0.7,1.8-1.1,3.4-1.1,4.6
		c-1.4,0.8-2.8,1.7-4.2,2.5c0-0.6,0.1-1.3,0.3-2.2c0.4-1.4,1.1-2.9,2.1-4.8c0.2-0.3,0-0.8-0.3-1c-0.3-0.2-0.8-0.1-1,0.3
		c-1.1,2-1.8,3.6-2.2,5.1c-0.4,1.3-0.4,2.5-0.4,3.4c-1,0.6-2,1.1-2.9,1.7c0.2-0.8,0.3-1.6,0.5-2.5c0.3-1.2,0.8-2.5,1.3-3.8
		c0.2-0.3,0-0.8-0.3-0.9c-0.4-0.2-0.8,0-1,0.3c-0.6,1.4-1.1,2.7-1.4,4c-0.3,1.2-0.5,2.4-0.7,3.7c-1.9,1-3.7,2-5.5,3
		c-0.4,0.2-0.5,0.6-0.3,1c0.2,0.3,0.6,0.5,1,0.2c1.9-1,3.8-2,5.7-3c1.2,0.3,2.4,0.5,3.6,0.7c1.3,0.2,2.7,0.3,4.1,0.2
		c0.4,0,0.8-0.3,0.8-0.7c0-0.3-0.3-0.7-0.8-0.7c-1.3,0-2.6-0.1-3.9-0.2c-0.6-0.1-1.3-0.2-1.9-0.3c0.9-0.5,1.8-1,2.6-1.5
		c1.1,0.3,2.4,0.4,3.7,0.5c1.3,0.1,2.7,0,4.1-0.1c0.4-0.1,0.7-0.4,0.7-0.8c0-0.4-0.4-0.7-0.7-0.7c-1.4,0.2-2.8,0.2-4.1,0.1
		c-0.6,0-1.2,0-1.8-0.1c1.2-0.7,2.5-1.5,3.7-2.2c1.1,0.3,2.5,0.4,3.7,0.4c1.4,0.1,2.7,0,4,0c0.4,0,0.8-0.3,0.8-0.7
		c0-0.4-0.3-0.8-0.8-0.8c-1.3,0.1-2.6,0.1-3.9,0c-0.7,0-1.3,0-1.9-0.1c1.1-0.7,2.3-1.4,3.4-2.1l5.5,0.2c0.4,0,0.8-0.3,0.8-0.8
		c0-0.4-0.3-0.7-0.6-0.7l-3.4-0.1c2.8-1.8,5.7-3.8,8.6-5.7c0.3-0.2,0.4-0.7,0.2-1C132,167.4,131.5,167.3,131.2,167.5z M183.8,81.7
		c-0.2-0.3-0.8-0.3-1.1-0.2c-0.3,0.2-0.3,0.8-0.1,1.1c0.8,1.1,1.8,2.2,2.7,3.1c0.9,0.9,1.9,1.6,2.8,2.3l0.2,4.1
		c0,0.4,0.3,0.8,0.8,0.6c0.4,0,0.7-0.3,0.6-0.8l-0.2-4.1c0.2-0.2,0.4-0.4,0.6-0.5c0.2-0.2,0.5-0.5,0.8-0.8c1.2-1.5,2.5-3.4,3.7-5.5
		c0.2-0.4,0.1-0.8-0.3-1c-0.3-0.2-0.7-0.1-0.9,0.2c-1.1,2.2-3.8,5.6-3.9,5.7l-0.2-6.3c0.8-0.8,1.6-1.8,2.3-2.9c0.8-1.2,1.4-2.6,2-4
		c0.2-0.4-0.1-0.8-0.4-1c-0.4-0.2-0.8,0.1-1,0.4c-0.5,1.4-1.1,2.7-1.8,3.8c-0.4,0.6-0.7,1.1-1.1,1.6l-0.2-4.9c1.6-1.5,2.3-3.8,3-6.2
		v-0.1c0.1-0.3-0.1-0.8-0.5-0.9c-0.4-0.1-0.8,0.2-0.9,0.5v0.1c-0.4,1.6-0.9,3.1-1.7,4.3l-0.3-8c-0.1-0.4-0.4-0.8-0.8-0.8
		c-0.4,0-0.7,0.3-0.7,0.8l0.4,8.9c0,0-2.1-1.5-3.1-2.5c-0.2-0.3-0.8-0.3-1.1-0.1c-0.2,0.3-0.2,0.8,0,1.1c1.1,1.1,2.2,2.1,3.3,2.7
		c0.2,0.2,0.8,0.5,0.9,0.5l0.2,5.4c-0.2,0-0.3-0.1-0.4-0.2c-1.1-0.6-2.3-1.6-3.4-3c-0.2-0.2-0.8-0.3-1-0.1c-0.3,0.2-0.4,0.8-0.2,1.1
		c1.3,1.5,2.5,2.7,3.9,3.4c0.2,0.1,0.5,0.2,0.8,0.3c0.1,0,0.2,0.1,0.3,0.1l0.2,6c-0.6-0.5-1.2-0.9-1.7-1.5
		C185.4,83.8,184.6,82.7,183.8,81.7z M196.9,117.9c-1.1,1.1-3.8,2.8-3.8,2.8c1.2-2.8,2.5-5.8,3.8-8.9c0.1-0.3-0.1-0.8-0.4-0.9
		c-0.4-0.2-0.8,0-1,0.3c-1.1,2.7-2.4,5.5-3.6,8.5c-0.3-1.2-0.5-2.5-0.6-3.8c0-0.3-0.1-2.4-0.1-2.5c0-0.4-0.3-0.8-0.8-0.8
		c-0.3,0-0.7,0.3-0.7,0.8c0,0.1,0,2.1,0.1,2.5c0.2,1.9,0.5,3.9,1.1,5.7c-0.8,1.7-1.5,3.4-2.3,5.2c-0.8-1.3-1.4-2.7-1.7-4.1
		c-0.1-0.3-0.2-0.8-0.2-1.1c0-0.3-0.1-0.8-0.1-1.1c0-0.4-0.4-0.8-0.8-0.8c-0.3,0-0.6,0.4-0.6,0.8v0.1c0,0.4,0.1,0.8,0.2,1.2
		c0,0.3,0.1,0.8,0.2,1.1c0.5,1.8,1.3,3.7,2.5,5.4c-0.4,0.9-1.9,4.3-2.2,5.1c-0.3-0.8-0.6-1.7-0.8-2.5c-0.3-1.4-0.6-2.8-0.8-4.2
		c0-0.4-0.4-0.7-0.8-0.7c-0.3,0.1-0.6,0.4-0.6,0.8c0.2,1.5,0.5,2.9,0.8,4.4c0.3,1.4,0.8,2.8,1.3,4.1c-0.6,1.3-1.1,2.7-1.7,4
		c-0.2,0.4,0,0.8,0.4,1c0.3,0.2,0.8,0,0.9-0.4c0.6-1.3,1.1-2.6,1.7-4c1-0.6,2-1.1,3.1-1.8c1.1-0.8,2.3-1.5,3.5-2.5
		c0.3-0.2,0.4-0.7,0.2-1c-0.2-0.3-0.7-0.4-1-0.2c-1.2,0.9-2.4,1.7-3.4,2.4c-0.5,0.3-1,0.6-1.4,0.8c0.3-0.8,1.8-4.1,2.2-5.1
		c1.1-0.5,2.2-1,3.2-1.7c1.2-0.8,2.5-1.7,3.7-2.9c0.3-0.2,0.3-0.8,0-1.1c-0.2-0.2-0.8-0.2-1,0c-1.2,1.1-2.4,2.1-3.4,2.8
		c-0.6,0.4-1.1,0.7-1.7,0.9c0.6-1.4,1.3-2.9,1.9-4.3c0.2-0.1,1.2-0.5,1.5-0.7c1.4-0.8,2.8-1.8,4.1-2.9c0.3-0.2,0.3-0.8,0.1-1
		C197.7,117.6,197.2,117.6,196.9,117.9z M65.2,24.5c1.5-0.5,2.9-1.1,4.4-1.7c0.9,0.3,1.9,0.6,2.8,0.9c1.1,0.2,2.1,0.5,3.2,0.7
		c0.4,0,0.8-0.2,0.8-0.7c0.1-0.4-0.2-0.8-0.6-0.8c-1.1-0.2-2.1-0.3-3.1-0.6c-0.4-0.1-0.7-0.2-1.1-0.4c1.3-0.6,2.7-1.1,4-1.7
		c1.5,0.8,3,1.1,4.5,1.4c0.3,0.1,0.7,0.2,1,0.2c0.3,0.1,0.8-0.2,0.8-0.6s-0.2-0.8-0.6-0.9c-0.3-0.1-0.7-0.1-1-0.2
		c-1.1-0.2-2.1-0.4-3.1-0.8c0.3-0.2,0.6-0.3,0.9-0.4c1-0.5,2.1-1,3.1-1.6c1.9,0.5,5.9,0.6,6,0.6c0.4,0.1,0.8-0.2,0.8-0.6
		s-0.3-0.8-0.6-0.8c-0.2,0-2.8-0.1-4-0.3c2.6-1.4,5.2-2.9,7.9-4.5c0.3-0.2,0.5-0.7,0.2-1.1c-0.2-0.3-0.7-0.4-1-0.2
		c-2.9,1.7-5.7,3.3-8.5,4.8c0.2-0.6,0.4-1.1,0.6-1.7c0.2-0.2,0.2-0.4,0.3-0.6c0.1-0.2,0.2-0.4,0.3-0.6c0.2-0.3,0.1-0.8-0.2-1
		c-0.4-0.2-0.8-0.1-1,0.2c0,0-1.6,3.5-1.7,4.5c-0.9,0.5-1.8,0.9-2.8,1.4c-0.4,0.2-0.7,0.3-1,0.5c0.1-0.5,0.2-0.9,0.3-1.4
		c0.2-0.9,0.6-1.7,1.1-2.5c0.2-0.3,0.2-0.8-0.2-1.1c-0.3-0.2-0.8-0.2-1.1,0.2c-0.6,1-1.1,2-1.3,2.9c-0.2,0.8-0.4,1.7-0.4,2.5
		c-1.6,0.7-3.2,1.4-4.7,2.1c0.2-0.6,0.4-1.3,0.6-1.9c0.3-1,0.8-2.1,1.5-3.2c0.2-0.3,0.1-0.8-0.3-1c-0.3-0.2-0.8-0.1-1,0.3
		c-0.7,1.1-1.1,2.3-1.5,3.4c-0.4,1.1-0.6,2.1-0.9,3.1c-1.3,0.5-2.6,1-4,1.5c-0.4,0.1-0.6,0.5-0.4,0.9C64.4,24.5,64.8,24.7,65.2,24.5
		z M39.4,52.3c0.3-0.2,0.4-0.7,0.2-1c-0.2-0.4-0.6-0.5-1-0.3c-0.8,0.4-1.4,0.8-2,1.2c-0.6,0.4-1.1,0.8-1.8,1
		c0.8-1.3,1.5-2.8,2.3-4.3c1.5,0.1,2.7-0.7,4-1.4c0.7-0.4,1.2-0.8,1.8-1c0.4-0.2,0.6-0.6,0.5-0.9c-0.2-0.4-0.6-0.6-0.9-0.5
		c-0.8,0.2-1.5,0.6-2.1,1.1c-0.8,0.5-1.6,1-2.5,1.2v0c0.6-1.2,1.2-2.5,1.9-3.7c1.9-0.2,4.7-2.1,5.2-2.5c0.3-0.2,0.4-0.6,0.2-1
		c-0.2-0.3-0.7-0.4-1-0.2c-0.5,0.3-2.6,1.8-3.6,2.1c2-3.8,6.8-11.5,6.9-11.5c0.2-0.3,0.1-0.8-0.2-1c-0.4-0.2-0.7-0.1-1,0.2
		c-2.4,3.4-4.5,7.1-6.5,10.7c-0.2-0.8-0.4-3.9-0.4-4.1c0.1-0.4-0.2-0.8-0.6-0.9c-0.4,0-0.8,0.2-0.8,0.6c-0.1,0.2,0.4,5.1,0.7,6.3
		c-0.7,1.3-1.3,2.6-2,3.8c-0.1-0.2-0.2-0.3-0.2-0.5c-0.6-1.2-1.2-2.5-0.9-3.6c0.1-0.4-0.2-0.8-0.6-0.9c-0.3-0.1-0.8,0.2-0.8,0.6
		c-0.5,1.6,0.2,3.1,1,4.6c0.2,0.5,0.5,1,0.7,1.5c-0.9,1.7-1.7,3.4-2.5,4.8c-0.3-0.9-0.5-2.1-0.7-3.1c0-0.3-0.1-0.6-0.1-0.9
		c0-0.2-0.1-0.4-0.1-0.6v-0.1c0-0.4-0.3-0.8-0.8-0.8c-0.4,0-0.8,0.3-0.7,0.8v0.9c0.1,0.3,0.1,0.6,0.2,0.9c0.2,1.6,0.7,3.6,1.1,4.6
		c-0.6,1-1.2,1.9-1.8,2.7c-0.2,0.2-0.2,0.8,0.2,1s0.8,0.2,1-0.2c0.6-0.9,1.3-1.9,2-3c1.5-0.1,2.4-0.7,3.6-1.5
		C38,53,38.6,52.7,39.4,52.3z M165.3,162.8c0.2-1.1,0.7-2.1,1.2-3c0.2-0.3,0.1-0.8-0.2-1c-0.3-0.2-0.8-0.1-1,0.3
		c-0.6,1.1-1.1,2.1-1.4,3.3c-0.3,0.9-0.5,2-0.6,3c-1.7,1-3.3,2-5,3c0.1-1.3,0.4-2.6,0.7-3.9c0.1-0.4,0.5-1.6,0.7-2.1
		c0.2-0.4-0.1-0.8-0.4-0.9c-0.4-0.2-0.8,0-1,0.4c-0.1,0.3-0.6,1.8-0.6,2.1c-0.5,1.7-0.7,3.4-0.9,5.1c-1.8,1-3.7,2-5.6,3
		c0-0.8,0.2-1.6,0.4-2.5c0.4-1.1,1-2.4,1.8-3.5c0.2-0.3,0.2-0.8-0.2-1c-0.3-0.2-0.8-0.2-1,0.2c-0.9,1.3-1.5,2.6-2.1,3.9
		c-0.4,1.2-0.5,2.4-0.5,3.6c-3,1.5-6.1,2.9-9.3,4.3c-0.3,0.2-0.5,0.6-0.3,0.9c0.1,0.4,0.6,0.6,0.9,0.4c1.2-0.5,2.3-1,3.5-1.5
		c0.1,0,0.1,0.1,0.2,0.1c1.1,0.5,2.1,0.8,3.3,0.9c1.1,0.1,2.2,0.1,3.3-0.1c0.4-0.1,0.8-0.4,0.7-0.8c-0.1-0.4-0.4-0.7-0.8-0.7
		c-1,0.2-2.1,0.2-3,0.1c-0.6,0-1.1-0.2-1.7-0.4c1.5-0.7,2.9-1.4,4.3-2.1c1.2,0.4,2.2,0.6,3.2,0.6c1.1,0.2,2.1,0.2,3.1,0.2
		c0.4,0,0.7-0.3,0.7-0.7c-0.1-0.4-0.4-0.8-0.8-0.8c-0.9,0.1-1.8,0.1-2.8-0.1c-0.5-0.1-0.9-0.2-1.4-0.3c1.7-0.9,3.5-1.8,5.2-2.8
		c0.8,0.2,1.6,0.4,2.5,0.5c1,0.1,2,0.2,2.9,0.2c0.4,0.1,0.8-0.2,0.8-0.7c0-0.4-0.3-0.8-0.8-0.8c-1,0-3.3-0.3-3.6-0.4
		c1.5-0.9,3-1.8,4.5-2.8c0.8,0.2,1.5,0.4,2.3,0.4c0.8,0.1,1.7,0.1,2.6,0c0.4,0,0.6-0.4,0.6-0.8c-0.1-0.3-0.4-0.7-0.8-0.6
		c-0.8,0.1-2.8-0.1-3-0.1c2.5-1.6,5.1-3.3,7.5-5c0.3-0.2,0.4-0.7,0.2-1.1c-0.2-0.3-0.7-0.4-1.1-0.2c-2.5,1.7-5.1,3.5-7.7,5.2
		C165,163.9,165.1,163.3,165.3,162.8z M148.6,32.2c0.3-0.3,0.6-0.8,0.6-1.3c0-0.5-0.2-1-0.6-1.3c-0.3-0.3-0.8-0.6-1.4-0.6
		c-0.5,0-1,0.2-1.3,0.6c-0.3,0.3-0.6,0.8-0.6,1.3c0,0.5,0.2,1,0.6,1.3c0.3,0.3,0.8,0.5,1.3,0.5C147.7,32.7,148.2,32.5,148.6,32.2z
		 M53.7,131.3c0,10.2,4.6,15.3,14,15.8c7.9,0,16,0,24,0.6c5.2,0.4,9.6,2.7,13.3,7.2c3-4,7.3-6.3,13.6-7.2c7.6-0.6,15.4-0.6,22.9-0.6
		c9.1-0.7,13.6-5.4,13.6-14.6c0-0.4,0-0.8,0-1.2c0,0,0-81.6,0-83.6H53.7C53.7,49.7,53.7,131.3,53.7,131.3z M118.5,84h31.5v-3.1h-31
		v-2.2h31v-3.1h-31v-2.3h31v-2.6h-31v-2.3h31V65h-31v-2.3h31v-3.7h-31v-2.2h31v-3.3h-31.5v-3.4h34.3v36.3h-34.3L118.5,84L118.5,84z
		 M118.4,142.8h20.9c3.5,0.2,8.4-1.9,8.4-3.5l-29.3-0.1v-2h30.5c0.1-0.3,0.6-2,0.6-3.4h-31.1v-2l31.1-0.1v-3.4h-31.1v-2h31.1l0.1-4
		h-31.1v-2h31.1v-4h-31.1v-2.1h31.1v-3.8h-31.1v-3.7h34.3v27.3c-0.2,6.6-5.7,11.3-13.5,10.6h-20.9L118.4,142.8L118.4,142.8z
		 M91.1,144.9H67.4c-2.1,0.1-4.5-0.8-5.9-2.1h26.3v-3.5H59.3c-0.8-0.7-1.3-1.5-1.5-2.1h30v-3.4H56.9c-0.2-0.6-0.3-1.5-0.3-2.1h31.3
		v-3.4H56.6v-2h31.3v-4H56.6v-2h31.3v-4H56.6v-2.1h31.3v-3.8H56.6v-3.7h34.5L91.1,144.9L91.1,144.9z M56.5,84h31.5v-3.1h-31v-2.2h31
		v-3.1h-31v-2.3h31v-2.6h-31v-2.3h31V65h-31v-2.3h31v-3.7h-31v-2.2h31v-3.3H56.5v-3.4h34.3v36.3H56.5L56.5,84L56.5,84z M49.7,48
		c0,1.3,0,83.3,0,83.3c0.8,13.8,8.1,20.2,22.4,19.6l19.8,0.6l0.2,0c6.1,1.7,10.4,5.1,13.2,10.2c3-5.8,7.4-9.3,13.6-10.3
		c0,0,21.1-0.6,21.2-0.6c11.3-0.2,16.7-5.3,17.2-16.2c0,0,0-0.6,0-1.7c-0.2,9.9-5.3,15.3-15.3,16c0,0,0-0.5-0.1-1c0,0.5,0,1,0,1
		c-7.8,0-15.2,0-22.7,0.6c-6.4,0.8-10.2,3-13,7.3l-0.8,1.1l-1.1-1.3c0,0-0.6-0.8-0.4-0.6c-3.2-4-7.3-6.2-12.1-6.5
		c-8-0.6-16-0.6-23.9-0.6c-10.6-0.6-16-6.6-16-17.8v-85C51.1,46.9,50.1,47.6,49.7,48z"/>
</g>
</svg>
